<svg width="299" height="49" viewBox="0 0 299 49" fill="none" xmlns="http://www.w3.org/2000/svg">
<path d="M15.45 1.5H18.4L33.15 37H29.45L24.85 25.9H8.90001L4.35001 37H0.600006L15.45 1.5ZM24.05 23.15L16.9 5.6L9.65001 23.15H24.05Z" fill="#FFDD44"/>
<path d="M47.2566 37.35C45.49 37.35 43.8566 36.9833 42.3566 36.25C40.8566 35.5167 39.5566 34.5333 38.4566 33.3C37.39 32.0333 36.5566 30.6 35.9566 29C35.3566 27.4 35.0566 25.75 35.0566 24.05C35.0566 22.2167 35.34 20.5 35.9066 18.9C36.5066 17.2667 37.34 15.8167 38.4067 14.55C39.5067 13.2833 40.79 12.3 42.2566 11.6C43.7233 10.8667 45.3566 10.5 47.1566 10.5C49.39 10.5 51.3233 11.0667 52.9566 12.2C54.6233 13.3333 56.0233 14.7333 57.1567 16.4V10.95H60.2066V37.1C60.2066 39.5 59.6233 41.5167 58.4566 43.15C57.3233 44.8167 55.7733 46.0667 53.8066 46.9C51.8733 47.7333 49.7566 48.15 47.4566 48.15C44.49 48.15 42.09 47.6167 40.2566 46.55C38.4233 45.4833 36.9233 44.05 35.7566 42.25L37.8566 40.6C38.89 42.2333 40.2566 43.45 41.9566 44.25C43.69 45.05 45.5233 45.45 47.4566 45.45C49.1566 45.45 50.7066 45.1333 52.1066 44.5C53.54 43.9 54.6733 42.9833 55.5066 41.75C56.3733 40.5167 56.8066 38.9667 56.8066 37.1V31.95C55.8066 33.5833 54.44 34.9 52.7066 35.9C50.9733 36.8667 49.1566 37.35 47.2566 37.35ZM48.2066 34.5C49.24 34.5 50.2233 34.3167 51.1567 33.95C52.1233 33.5833 53.0066 33.1 53.8066 32.5C54.6066 31.8667 55.2733 31.1667 55.8066 30.4C56.34 29.6333 56.6733 28.85 56.8066 28.05V20C56.3066 18.7333 55.59 17.6167 54.6567 16.65C53.7233 15.65 52.6566 14.8833 51.4566 14.35C50.29 13.7833 49.0733 13.5 47.8066 13.5C46.34 13.5 45.0233 13.8167 43.8566 14.45C42.7233 15.05 41.7566 15.8667 40.9566 16.9C40.19 17.9 39.59 19.0333 39.1567 20.3C38.7233 21.5667 38.5066 22.8333 38.5066 24.1C38.5066 25.5 38.7566 26.8333 39.2566 28.1C39.7566 29.3333 40.44 30.45 41.3066 31.45C42.2066 32.4167 43.24 33.1667 44.4067 33.7C45.6067 34.2333 46.8733 34.5 48.2066 34.5Z" fill="#FFDD44"/>
<path d="M78.9649 37.5C77.0982 37.5 75.3649 37.15 73.7649 36.45C72.1649 35.7167 70.7815 34.7333 69.6149 33.5C68.4482 32.2333 67.5315 30.7833 66.8649 29.15C66.2315 27.5167 65.9148 25.7667 65.9148 23.9C65.9148 21.4667 66.4648 19.2333 67.5648 17.2C68.6982 15.1667 70.2482 13.55 72.2149 12.35C74.1815 11.1167 76.4149 10.5 78.9149 10.5C81.4815 10.5 83.7149 11.1167 85.6149 12.35C87.5482 13.5833 89.0649 15.2167 90.1649 17.25C91.2649 19.25 91.8148 21.45 91.8148 23.85C91.8148 24.1167 91.8148 24.3833 91.8148 24.65C91.8148 24.8833 91.7982 25.0667 91.7649 25.2H69.4649C69.6315 27.0667 70.1482 28.7333 71.0149 30.2C71.9149 31.6333 73.0649 32.7833 74.4649 33.65C75.8982 34.4833 77.4482 34.9 79.1149 34.9C80.8149 34.9 82.4149 34.4667 83.9149 33.6C85.4482 32.7333 86.5149 31.6 87.1149 30.2L90.0648 31C89.5315 32.2333 88.7149 33.35 87.6149 34.35C86.5149 35.35 85.2149 36.1333 83.7149 36.7C82.2482 37.2333 80.6649 37.5 78.9649 37.5ZM69.3649 22.75H88.6149C88.4815 20.85 87.9649 19.1833 87.0648 17.75C86.1982 16.3167 85.0482 15.2 83.6149 14.4C82.2149 13.5667 80.6649 13.15 78.9649 13.15C77.2649 13.15 75.7148 13.5667 74.3148 14.4C72.9148 15.2 71.7649 16.3333 70.8649 17.8C69.9982 19.2333 69.4982 20.8833 69.3649 22.75ZM72.6648 4.75L77.5648 0.5H80.0648L85.0149 4.75L83.0648 5.8L78.8148 2.65L74.5648 5.8L72.6648 4.75Z" fill="#FFDD44"/>
<path d="M118.961 37H115.561V22.45C115.561 19.3833 115.111 17.15 114.211 15.75C113.311 14.3167 111.894 13.6 109.961 13.6C108.627 13.6 107.311 13.9333 106.011 14.6C104.711 15.2333 103.561 16.1167 102.561 17.25C101.594 18.35 100.894 19.6167 100.461 21.05V37H97.0606V10.95H100.161V16.85C100.861 15.5833 101.777 14.4833 102.911 13.55C104.044 12.5833 105.327 11.8333 106.761 11.3C108.194 10.7667 109.677 10.5 111.211 10.5C112.644 10.5 113.861 10.7667 114.861 11.3C115.861 11.8333 116.661 12.6 117.261 13.6C117.861 14.5667 118.294 15.75 118.561 17.15C118.827 18.5167 118.961 20.05 118.961 21.75V37Z" fill="#FFDD44"/>
<path d="M137.511 37.5C135.611 37.5 133.861 37.15 132.261 36.45C130.694 35.7167 129.311 34.7167 128.111 33.45C126.944 32.1833 126.028 30.7333 125.361 29.1C124.728 27.4667 124.411 25.7333 124.411 23.9C124.411 21.4333 124.961 19.1833 126.061 17.15C127.161 15.1167 128.694 13.5 130.661 12.3C132.628 11.1 134.894 10.5 137.461 10.5C139.894 10.5 142.044 11.0667 143.911 12.2C145.778 13.3 147.161 14.8 148.061 16.7L144.761 17.75C144.028 16.4167 142.994 15.3833 141.661 14.65C140.361 13.8833 138.911 13.5 137.311 13.5C135.578 13.5 133.994 13.95 132.561 14.85C131.128 15.75 129.978 16.9833 129.111 18.55C128.278 20.1167 127.861 21.9 127.861 23.9C127.861 25.8667 128.294 27.65 129.161 29.25C130.028 30.85 131.178 32.1333 132.611 33.1C134.044 34.0333 135.628 34.5 137.361 34.5C138.494 34.5 139.578 34.3 140.611 33.9C141.678 33.5 142.594 32.9667 143.361 32.3C144.161 31.6 144.694 30.85 144.961 30.05L148.311 31.05C147.844 32.2833 147.061 33.4 145.961 34.4C144.894 35.3667 143.628 36.1333 142.161 36.7C140.728 37.2333 139.178 37.5 137.511 37.5Z" fill="#FFDD44"/>
<path d="M153.652 37V10.95H157.052V37H153.652ZM153.652 5.5V0.5H157.052V5.5H153.652Z" fill="#FFDD44"/>
<path d="M162.441 29.5C162.441 27.8667 162.908 26.4667 163.841 25.3C164.774 24.1 166.058 23.1833 167.691 22.55C169.358 21.8833 171.274 21.55 173.441 21.55C174.708 21.55 176.024 21.65 177.391 21.85C178.758 22.05 179.974 22.35 181.041 22.75V20.55C181.041 18.35 180.391 16.6 179.091 15.3C177.791 14 175.991 13.35 173.691 13.35C172.291 13.35 170.908 13.6167 169.541 14.15C168.208 14.65 166.808 15.4 165.341 16.4L164.041 14C165.741 12.8333 167.408 11.9667 169.041 11.4C170.674 10.8 172.341 10.5 174.041 10.5C177.241 10.5 179.774 11.4167 181.641 13.25C183.508 15.0833 184.441 17.6167 184.441 20.85V32.9C184.441 33.3667 184.541 33.7167 184.741 33.95C184.941 34.15 185.258 34.2667 185.691 34.3V37C185.324 37.0333 185.008 37.0667 184.741 37.1C184.474 37.1333 184.274 37.1333 184.141 37.1C183.308 37.0667 182.674 36.8 182.241 36.3C181.808 35.8 181.574 35.2667 181.541 34.7L181.491 32.8C180.324 34.3 178.808 35.4667 176.941 36.3C175.074 37.1 173.174 37.5 171.241 37.5C169.574 37.5 168.058 37.15 166.691 36.45C165.358 35.7167 164.308 34.75 163.541 33.55C162.808 32.3167 162.441 30.9667 162.441 29.5ZM179.891 31.5C180.258 31.0333 180.541 30.5833 180.741 30.15C180.941 29.7167 181.041 29.3333 181.041 29V25.2C179.908 24.7667 178.724 24.4333 177.491 24.2C176.291 23.9667 175.074 23.85 173.841 23.85C171.408 23.85 169.441 24.3333 167.941 25.3C166.441 26.2667 165.691 27.5833 165.691 29.25C165.691 30.2167 165.941 31.1333 166.441 32C166.941 32.8333 167.674 33.5333 168.641 34.1C169.608 34.6333 170.741 34.9 172.041 34.9C173.674 34.9 175.191 34.5833 176.591 33.95C178.024 33.3167 179.124 32.5 179.891 31.5Z" fill="#FFDD44"/>
<path d="M220.337 27.85C220.337 29.85 219.82 31.5333 218.787 32.9C217.754 34.2333 216.354 35.25 214.587 35.95C212.854 36.65 210.954 37 208.887 37H191.737V1.5H210.737C212.404 1.5 213.837 1.95 215.037 2.85C216.27 3.71667 217.204 4.85 217.837 6.25C218.504 7.61667 218.837 9.05 218.837 10.55C218.837 12.25 218.404 13.8667 217.537 15.4C216.67 16.9333 215.404 18.0667 213.737 18.8C215.77 19.4 217.37 20.4833 218.537 22.05C219.737 23.6167 220.337 25.55 220.337 27.85ZM213.387 26.55C213.387 25.65 213.204 24.85 212.837 24.15C212.47 23.4167 211.97 22.85 211.337 22.45C210.737 22.0167 210.037 21.8 209.237 21.8H198.637V31.15H208.887C209.72 31.15 210.47 30.95 211.137 30.55C211.837 30.1167 212.387 29.55 212.787 28.85C213.187 28.15 213.387 27.3833 213.387 26.55ZM198.637 7.4V16.35H207.837C208.604 16.35 209.304 16.1667 209.937 15.8C210.57 15.4333 211.07 14.9167 211.437 14.25C211.837 13.5833 212.037 12.7833 212.037 11.85C212.037 10.95 211.854 10.1667 211.487 9.5C211.154 8.83333 210.687 8.31667 210.087 7.95C209.52 7.58333 208.87 7.4 208.137 7.4H198.637Z" fill="white"/>
<path d="M237.171 37.5C235.038 37.5 233.121 37.15 231.421 36.45C229.721 35.7167 228.271 34.7167 227.071 33.45C225.905 32.1833 225.005 30.7333 224.371 29.1C223.738 27.4667 223.421 25.75 223.421 23.95C223.421 22.1167 223.738 20.3833 224.371 18.75C225.005 17.1167 225.905 15.6667 227.071 14.4C228.271 13.1333 229.721 12.15 231.421 11.45C233.121 10.7167 235.038 10.35 237.171 10.35C239.305 10.35 241.205 10.7167 242.871 11.45C244.571 12.15 246.021 13.1333 247.221 14.4C248.421 15.6667 249.321 17.1167 249.921 18.75C250.555 20.3833 250.871 22.1167 250.871 23.95C250.871 25.75 250.555 27.4667 249.921 29.1C249.321 30.7333 248.421 32.1833 247.221 33.45C246.055 34.7167 244.621 35.7167 242.921 36.45C241.221 37.15 239.305 37.5 237.171 37.5ZM230.321 23.95C230.321 25.4833 230.621 26.85 231.221 28.05C231.821 29.2167 232.638 30.1333 233.671 30.8C234.705 31.4667 235.871 31.8 237.171 31.8C238.438 31.8 239.588 31.4667 240.621 30.8C241.655 30.1 242.471 29.1667 243.071 28C243.705 26.8 244.021 25.4333 244.021 23.9C244.021 22.4 243.705 21.05 243.071 19.85C242.471 18.65 241.655 17.7167 240.621 17.05C239.588 16.3833 238.438 16.05 237.171 16.05C235.871 16.05 234.705 16.4 233.671 17.1C232.638 17.7667 231.821 18.7 231.221 19.9C230.621 21.0667 230.321 22.4167 230.321 23.95Z" fill="white"/>
<path d="M255.344 0.5H262.044V28.6C262.044 29.8 262.244 30.6167 262.644 31.05C263.044 31.45 263.594 31.65 264.294 31.65C264.827 31.65 265.377 31.5833 265.944 31.45C266.51 31.3167 267.01 31.15 267.444 30.95L268.344 36.05C267.444 36.4833 266.394 36.8167 265.194 37.05C263.994 37.2833 262.91 37.4 261.944 37.4C259.844 37.4 258.21 36.85 257.044 35.75C255.91 34.6167 255.344 33.0167 255.344 30.95V0.5Z" fill="white"/>
<path d="M269.663 23.9C269.663 21.3667 270.163 19.0833 271.163 17.05C272.163 14.9833 273.546 13.35 275.313 12.15C277.08 10.95 279.096 10.35 281.363 10.35C283.296 10.35 285.03 10.8333 286.563 11.8C288.13 12.7333 289.346 13.9333 290.213 15.4V0.5H296.913V29.5C296.913 30.2 297.03 30.7 297.263 31C297.496 31.3 297.896 31.4833 298.463 31.55V37C297.296 37.2333 296.346 37.35 295.613 37.35C294.413 37.35 293.413 37.05 292.613 36.45C291.846 35.85 291.413 35.0667 291.313 34.1L291.213 32.45C290.246 34.0833 288.93 35.3333 287.263 36.2C285.63 37.0667 283.913 37.5 282.113 37.5C280.313 37.5 278.646 37.15 277.113 36.45C275.613 35.75 274.296 34.7833 273.163 33.55C272.063 32.3167 271.196 30.8833 270.563 29.25C269.963 27.5833 269.663 25.8 269.663 23.9ZM290.213 27.4V21.15C289.88 20.1833 289.346 19.3167 288.613 18.55C287.88 17.7833 287.063 17.1833 286.163 16.75C285.263 16.2833 284.363 16.05 283.463 16.05C282.43 16.05 281.496 16.2667 280.663 16.7C279.83 17.1333 279.096 17.7167 278.463 18.45C277.863 19.1833 277.396 20.0333 277.063 21C276.763 21.9667 276.613 22.9833 276.613 24.05C276.613 25.1167 276.78 26.1333 277.113 27.1C277.48 28.0333 277.996 28.85 278.663 29.55C279.33 30.25 280.096 30.8 280.963 31.2C281.863 31.6 282.83 31.8 283.863 31.8C284.496 31.8 285.13 31.7 285.763 31.5C286.43 31.2667 287.046 30.9667 287.613 30.6C288.213 30.2 288.73 29.7333 289.163 29.2C289.63 28.6333 289.98 28.0333 290.213 27.4Z" fill="white"/>
</svg>
